<svg version="1.1" viewBox="0.0 0.0 960.0 720.0" fill="none" stroke="none" stroke-linecap="square" stroke-miterlimit="10" xmlns:xlink="http://www.w3.org/1999/xlink" xmlns="http://www.w3.org/2000/svg"><clipPath id="p.0"><path d="m0 0l960.0 0l0 720.0l-960.0 0l0 -720.0z" clip-rule="nonzero"/></clipPath><g clip-path="url(#p.0)"><path fill="#000000" fill-opacity="0.0" d="m0 0l960.0 0l0 720.0l-960.0 0z" fill-rule="evenodd"/><path fill="#cfe2f3" d="m401.8695 343.63385l256.11737 0l0 0c33.552063 0 60.751404 24.232483 60.751404 54.124725c0 29.892273 -27.19934 54.124725 -60.751404 54.124725l-256.11737 0l0 0c-33.552063 0 -60.751404 -24.232452 -60.751404 -54.124725c0 -29.892242 27.19934 -54.124725 60.751404 -54.124725z" fill-rule="evenodd"/><path stroke="#0000ff" stroke-width="3.0" stroke-linejoin="round" stroke-linecap="butt" d="m401.8695 343.63385l256.11737 0l0 0c33.552063 0 60.751404 24.232483 60.751404 54.124725c0 29.892273 -27.19934 54.124725 -60.751404 54.124725l-256.11737 0l0 0c-33.552063 0 -60.751404 -24.232452 -60.751404 -54.124725c0 -29.892242 27.19934 -54.124725 60.751404 -54.124725z" fill-rule="evenodd"/><path fill="#000000" fill-opacity="0.0" d="m371.33072 367.86877l508.53543 0l0 59.77951l-508.53543 0z" fill-rule="evenodd"/><path fill="#000000" d="m382.01822 389.47815l0 -3.90625l20.125 0l2.15625 -0.4375l1.796875 1.65625q-0.53125 17.78125 -18.921875 22.9375l-3.078125 -3.765625q16.6875 -3.765625 17.421875 -16.484375l-19.5 0zm20.90625 -3.078125q-2.0 -2.140625 -4.09375 -3.921875l2.28125 -2.28125q2.21875 1.75 4.296875 4.140625l-2.484375 2.0625zm4.6875 -0.359375q-2.390625 -2.703125 -4.65625 -4.640625l2.34375 -1.953125q2.46875 1.84375 4.625 4.484375l-2.3125 2.109375zm26.56311 6.75q-0.890625 8.375 -4.8125 12.28125q-3.84375 3.859375 -10.453125 6.25l-2.296875 -3.375q6.515625 -2.125 9.828125 -5.421875q3.5 -3.5 4.046875 -12.703125l3.359375 1.125q2.296875 0.765625 0.328125 1.84375zm-11.796875 5.046875q-1.765625 -3.953125 -3.625 -6.71875l3.359375 -1.78125q2.265625 2.859375 3.921875 6.765625l-3.65625 1.734375zm-6.640625 1.984375q-1.765625 -4.109375 -3.75 -7.015625l3.5 -1.78125q2.125 2.890625 3.765625 6.890625l-3.515625 1.90625zm45.740967 -8.890625q-2.484375 14.140625 -16.859375 20.515625l-3.109375 -3.28125q13.203125 -5.390625 15.625 -17.265625l-9.484375 0q-2.890625 4.765625 -6.484375 8.078125l-3.515625 -2.28125q7.15625 -6.453125 9.203125 -15.046875l3.5625 1.234375q1.859375 0.921875 -0.03125 1.640625q-0.46875 1.515625 -1.0 2.484375l8.375 0l1.40625 -0.78125l2.609375 2.625q1.515625 1.53125 -0.296875 2.078125zm21.33435 10.359375q2.390625 2.28125 4.4375 4.640625l-3.375 3.03125q-5.25 -6.21875 -12.015625 -11.171875l2.4375 -3.125q2.78125 1.671875 5.3125 3.984375q3.53125 -3.515625 6.921875 -8.34375l-19.84375 0.875l-0.6875 -4.28125l23.3125 -0.546875l1.53125 -0.46875l2.203125 2.375q1.265625 1.96875 -0.6875 1.765625q-3.09375 4.078125 -9.546875 11.265625zm13.9953 -3.09375l0 -3.90625l30.06247 0l0 3.90625l-30.06247 0zm56.682465 -7.265625q-2.484375 14.140625 -16.859375 20.515625l-3.109375 -3.28125q13.203125 -5.390625 15.625 -17.265625l-9.484375 0q-2.890625 4.765625 -6.484375 8.078125l-3.515625 -2.28125q7.15625 -6.453125 9.203125 -15.046875l3.5625 1.234375q1.859375 0.921875 -0.03125 1.640625q-0.46875 1.515625 -1.0 2.484375l8.375 0l1.40625 -0.78125l2.609375 2.625q1.515625 1.53125 -0.296875 2.078125zm25.443726 16.375q-6.328125 0 -10.84375 -4.375l2.3125 -3.046875q3.78125 3.65625 8.53125 3.53125l7.671875 0l0 3.890625l-7.671875 0zm-19.109375 2.515625q-0.421875 -7.3125 -0.421875 -12.140625q0 -5.90625 1.546875 -14.578125l3.125 0.796875q2.609375 0.484375 0.484375 1.96875q-1.25 7.296875 -1.25 11.8125q0 5.0625 0.5625 11.796875l-4.046875 0.34375zm25.09375 -19.296875q-6.109375 -0.140625 -15.609375 0.828125l0 -3.78125q9.859375 -0.953125 15.609375 -0.8125l0 3.765625zm23.92218 -10.25l3.546875 0.921875q1.328125 1.34375 -0.359375 1.59375l-1.015625 1.484375l6.703125 0l0 10.015625l-11.84375 0l0 1.5625l13.140625 0l0 10.796875l-3.640625 0l0 -0.90625l-9.5 0l0 1.171875l-3.640625 0l0 -22.640625l4.734375 0l1.875 -4.0zm-18.640625 27.359375q3.46875 -1.046875 5.390625 -2.296875l0 -7.671875l-4.421875 0l0 -3.5l8.0625 0l0 10.984375q1.90625 2.03125 6.515625 2.03125l15.703125 0l-0.5625 3.515625l-16.453125 0q-4.78125 0 -6.921875 -2.390625q-2.421875 2.3125 -5.453125 3.578125l-1.859375 -4.25zm23.875 -16.84375l0 -3.015625l-8.203125 0l0 3.015625l8.203125 0zm1.296875 11.453125l0 -2.875l-9.5 0l0 2.875l9.5 0zm-17.859375 -12.265625q-2.671875 -3.25 -5.28125 -5.234375l2.609375 -2.96875q3.1875 1.96875 5.578125 5.28125l-2.90625 2.921875zm39.34375 0.796875l-2.875 0l0 1.6875q0 11.140625 -6.875 18.5625l-2.96875 -2.625q6.203125 -7.015625 6.203125 -16.0625l0 -1.5625l-4.8125 0l0 -3.5l4.8125 0l0 -5.859375l3.015625 0q2.390625 0.28125 0.625 1.5625l0 4.296875l6.5 0l0 12.875q0 5.296875 -0.8125 7.34375q-1.046875 2.546875 -4.25 2.546875l-2.5625 0l-0.34375 -3.890625l2.640625 0q0.921875 0 1.203125 -0.828125q0.5 -1.234375 0.5 -4.78125l0 -9.765625zm4.8125 -4.9375l12.484375 0l0 23.296875l-3.640625 0l0 -1.5625l-5.21875 0l0 2.078125l-3.625 0l0 -23.8125zm3.625 3.5l0 14.71875l5.21875 0l0 -14.71875l-5.21875 0z" fill-rule="nonzero"/></g></svg>